<?xml version="1.0" encoding="UTF-8"?>
<svg id="Layer_1" data-name="Layer 1" xmlns="http://www.w3.org/2000/svg" viewBox="0 0 1267.06 344.39">
  <path d="M6.55,344.39c-3.79,0-6.55-2.94-6.55-6.99V188.01c0-4.05,2.76-6.99,6.55-6.99H94.76c4.82,0,9.65,4.42,8.96,9.57l-15.16,145.33c-.69,5.89-3.45,8.46-8.96,8.46H6.55ZM132.67,8.46c.34-5.89,3.45-8.46,8.61-8.46h74.43c3.79,0,6.55,2.94,6.55,6.99V293.61c0,30.54-18.95,50.78-47.55,50.78H105.79c-5.17,0-7.58-2.58-6.89-8.46L132.67,8.46Z"/>
  <path d="M280.15,344.39c-28.6,0-47.55-20.24-47.55-50.78V137.61c0-30.54,18.95-50.77,47.55-50.77h63.4c5.51,0,7.58,2.58,7.24,8.46l-24.47,240.63c-.69,5.89-3.45,8.46-8.96,8.46h-37.22Zm80.98-249.09c.34-5.89,3.45-8.46,8.61-8.46h37.22c28.6,0,47.55,20.24,47.55,50.77v156c0,30.54-18.95,50.78-47.55,50.78h-63.4c-5.17,0-7.58-2.58-6.89-8.46l24.47-240.63Z"/>
  <path d="M512.4,344.39c-28.6,0-47.55-20.24-47.55-50.78V95.29c0-5.52,2.76-8.46,7.93-8.46h103.03c5.17,0,7.58,2.58,6.89,8.46l-24.47,240.63c-.34,5.89-3.45,8.46-8.61,8.46h-37.22Zm80.98-249.09c.34-5.89,3.45-8.46,8.61-8.46h76.84c5.17,0,7.92,2.94,7.92,8.46v240.63c0,5.52-2.76,8.46-7.92,8.46h-103.38c-5.17,0-7.58-2.58-6.89-8.46l24.81-240.63Z"/>
  <path d="M786.01,335.92c-.69,5.89-3.79,8.46-8.96,8.46h-72.02c-5.17,0-7.93-2.94-7.93-8.46V95.29c0-5.52,2.76-8.46,7.93-8.46h98.9c5.17,0,7.58,2.58,6.89,8.46l-24.81,240.63Zm35.15-240.63c.69-5.89,3.45-8.46,8.62-8.46h82.36c5.17,0,7.93,2.94,7.93,8.46v42.31c0,30.54-18.95,50.04-47.55,50.04h-53.07c-5.17,0-7.58-2.58-6.89-8.46l8.61-83.89Z"/>
  <path d="M1003.79,335.92c-.34,5.89-3.45,8.46-8.62,8.46h-57.89c-5.17,0-7.93-2.94-7.93-8.46V95.29c0-5.52,2.76-8.46,7.93-8.46h84.42c5.17,0,7.58,2.58,6.89,8.46l-24.81,240.63Zm99.93-249.09c28.6,0,47.55,20.24,47.55,50.77v198.32c0,5.52-2.76,8.46-7.92,8.46h-121.99c-5.17,0-7.58-2.58-6.89-8.46l24.47-240.63c.34-5.89,3.45-8.46,8.62-8.46h56.17Z"/>
  <path d="M1161.62,8.83c0-5.89,2.76-8.83,8.27-8.83h88.9c5.51,0,8.27,2.94,8.27,8.83v58.13c0,5.89-2.76,8.83-8.27,8.83h-88.9c-5.51,0-8.27-2.94-8.27-8.83V8.83Zm7.93,335.56c-5.17,0-7.93-2.94-7.93-8.46V95.29c0-5.52,2.76-8.46,7.93-8.46h89.59c5.17,0,7.93,2.94,7.93,8.46v240.63c0,5.52-2.76,8.46-7.93,8.46h-89.59Z"/>
</svg>