<svg id="Layer_1" data-name="Layer 1" xmlns="http://www.w3.org/2000/svg" viewBox="0 0 600 355"><defs><style>.cls-1{fill:#baff66;}.cls-2{fill:#baff66;}.cls-3{fill:#0c1f19;}.cls-4{fill:transparent;}</style></defs><path class="cls-1" d="M289.18,9h7.6a9.28,9.28,0,0,1,9.28,9.28V341.56a0,0,0,0,1,0,0H279.9a0,0,0,0,1,0,0V18.32A9.28,9.28,0,0,1,289.18,9Z"/><path class="cls-2" d="M306.05,343H279.9a1.41,1.41,0,0,1-1.4-1.41V22.12a14.48,14.48,0,1,1,29,0V341.56A1.41,1.41,0,0,1,306.05,343Zm-24.74-2.82h23.34v-318a11.67,11.67,0,1,0-23.34,0Z"/><path class="cls-3" d="M382.63,97.87l-186.2,29.32V67l186.2-29.33L411.57,52.2A6.92,6.92,0,0,1,413.64,63Z"/><path class="cls-2" d="M196.43,128.6a1.42,1.42,0,0,1-1.41-1.41V67a1.4,1.4,0,0,1,1.19-1.39l186.2-29.33a1.39,1.39,0,0,1,.85.14L412.2,50.94a8.32,8.32,0,0,1,2.49,13l-31,34.9a1.36,1.36,0,0,1-.83.46l-186.2,29.32Zm1.41-60.41v57.35l184.08-29L412.59,62a5.5,5.5,0,0,0-1.65-8.57L382.41,39.12ZM382.63,97.87h0Z"/><path class="cls-3" d="M207.87,144.85,389.42,187v60.2l-181.55-42.1-32.76-39.49A4.92,4.92,0,0,1,177,157.9Z"/><path class="cls-2" d="M389.42,248.57a1.17,1.17,0,0,1-.32,0l-181.55-42.1a1.41,1.41,0,0,1-.76-.47L174,166.47a6.33,6.33,0,0,1,2.41-9.86l30.88-13.05a1.45,1.45,0,0,1,.87-.08l181.55,42.11a1.39,1.39,0,0,1,1.09,1.37v60.2a1.41,1.41,0,0,1-1.41,1.41ZM208.65,203.8,388,245.39V188.07L208,146.33,177.53,159.2a3.51,3.51,0,0,0-1.33,5.47Z"/><circle class="cls-3" cx="149.66" cy="65.66" r="17.49"/><path class="cls-2" d="M149.66,84.55a18.9,18.9,0,1,1,18.9-18.89A18.91,18.91,0,0,1,149.66,84.55Zm0-35a16.09,16.09,0,1,0,16.09,16.09A16.1,16.1,0,0,0,149.66,49.57Z"/><path class="cls-2" d="M247.82,341.22a1.4,1.4,0,0,1-1.4-1.4v-57a1.41,1.41,0,1,1,2.81,0v57A1.41,1.41,0,0,1,247.82,341.22Z"/><path class="cls-2" d="M239.38,296a1.41,1.41,0,0,1-.71-2.63h0c.07,0,6.43-3.79,7.82-11.14a1.41,1.41,0,0,1,1.38-1.15h0a1.41,1.41,0,0,1,1.38,1.14,17.14,17.14,0,0,0,7.42,11.14,1.41,1.41,0,1,1-1.39,2.45,19.53,19.53,0,0,1-7.44-8.7,20.91,20.91,0,0,1-7.78,8.7A1.36,1.36,0,0,1,239.38,296Z"/><path class="cls-2" d="M239.38,307.77a1.41,1.41,0,0,1-.71-2.63h0c.07,0,6.43-3.79,7.82-11.14a1.43,1.43,0,0,1,1.38-1.15h0a1.41,1.41,0,0,1,1.38,1.14,17.14,17.14,0,0,0,7.42,11.14,1.41,1.41,0,1,1-1.39,2.45,19.46,19.46,0,0,1-7.44-8.7,20.91,20.91,0,0,1-7.78,8.7A1.36,1.36,0,0,1,239.38,307.77Z"/><path class="cls-2" d="M239.38,320.17a1.4,1.4,0,0,1-.71-2.62h0c.07,0,6.43-3.8,7.82-11.15a1.41,1.41,0,0,1,1.38-1.14h0a1.41,1.41,0,0,1,1.38,1.14,17.17,17.17,0,0,0,7.42,11.14,1.4,1.4,0,1,1-1.39,2.44,19.46,19.46,0,0,1-7.44-8.7,21,21,0,0,1-7.78,8.71A1.45,1.45,0,0,1,239.38,320.17Z"/><path class="cls-2" d="M239.38,331.91a1.4,1.4,0,0,1-.71-2.62h0c.07,0,6.43-3.8,7.82-11.15a1.41,1.41,0,0,1,1.38-1.14h0a1.41,1.41,0,0,1,1.38,1.14,17.17,17.17,0,0,0,7.42,11.14,1.41,1.41,0,1,1-1.39,2.45,19.59,19.59,0,0,1-7.44-8.71,21,21,0,0,1-7.78,8.71A1.45,1.45,0,0,1,239.38,331.91Z"/><path class="cls-2" d="M221.48,341.05a1.41,1.41,0,0,1-1.4-1.41v-65a1.41,1.41,0,1,1,2.81,0v65A1.41,1.41,0,0,1,221.48,341.05Z"/><path class="cls-2" d="M213,287.82a1.41,1.41,0,0,1-.71-2.63h0c.07,0,6.43-3.79,7.82-11.14a1.41,1.41,0,0,1,1.38-1.14h0a1.41,1.41,0,0,1,1.39,1.14,17.35,17.35,0,0,0,7.42,11.14,1.4,1.4,0,0,1-1.39,2.44,19.46,19.46,0,0,1-7.44-8.7,21,21,0,0,1-7.78,8.71A1.45,1.45,0,0,1,213,287.82Z"/><path class="cls-2" d="M213,299.56a1.41,1.41,0,0,1-.71-2.63c.07,0,6.43-3.79,7.82-11.14a1.41,1.41,0,0,1,1.38-1.14h0a1.41,1.41,0,0,1,1.39,1.14,17.31,17.31,0,0,0,7.42,11.14,1.4,1.4,0,0,1-1.39,2.44,19.46,19.46,0,0,1-7.44-8.7,21,21,0,0,1-7.78,8.71A1.45,1.45,0,0,1,213,299.56Z"/><path class="cls-2" d="M213,312a1.41,1.41,0,0,1-.71-2.63h0c.07,0,6.43-3.79,7.82-11.14a1.43,1.43,0,0,1,1.38-1.15h0a1.41,1.41,0,0,1,1.39,1.14,17.28,17.28,0,0,0,7.42,11.14,1.41,1.41,0,0,1-1.39,2.45,19.46,19.46,0,0,1-7.44-8.7,20.91,20.91,0,0,1-7.78,8.7A1.36,1.36,0,0,1,213,312Z"/><path class="cls-2" d="M213,323.71a1.41,1.41,0,0,1-.71-2.63c.07,0,6.43-3.79,7.82-11.14a1.41,1.41,0,0,1,1.38-1.14h0a1.41,1.41,0,0,1,1.39,1.13,17.35,17.35,0,0,0,7.42,11.15,1.4,1.4,0,0,1-1.39,2.44,19.46,19.46,0,0,1-7.44-8.7,20.91,20.91,0,0,1-7.78,8.7A1.36,1.36,0,0,1,213,323.71Z"/><path class="cls-2" d="M344.09,342.33a1.4,1.4,0,0,1-1.4-1.4V284a1.41,1.41,0,1,1,2.81,0v57A1.41,1.41,0,0,1,344.09,342.33Z"/><path class="cls-2" d="M335.65,297.13a1.4,1.4,0,0,1-.71-2.62c.11-.06,6.44-3.82,7.82-11.14a1.41,1.41,0,0,1,1.38-1.15h0a1.41,1.41,0,0,1,1.38,1.14A17.28,17.28,0,0,0,353,294.5a1.41,1.41,0,0,1-1.39,2.45,19.53,19.53,0,0,1-7.44-8.7,20.91,20.91,0,0,1-7.78,8.7A1.34,1.34,0,0,1,335.65,297.13Z"/><path class="cls-2" d="M335.65,308.88a1.41,1.41,0,0,1-.71-2.63h0c.07,0,6.43-3.79,7.82-11.14a1.41,1.41,0,0,1,1.38-1.15h0a1.41,1.41,0,0,1,1.38,1.14A17.28,17.28,0,0,0,353,306.24a1.41,1.41,0,0,1-1.39,2.45,19.52,19.52,0,0,1-7.44-8.71,20.9,20.9,0,0,1-7.78,8.71A1.36,1.36,0,0,1,335.65,308.88Z"/><path class="cls-2" d="M335.65,321.28a1.41,1.41,0,0,1-.71-2.63c.11-.06,6.44-3.81,7.82-11.14a1.41,1.41,0,0,1,1.38-1.14h0a1.41,1.41,0,0,1,1.38,1.14A17.31,17.31,0,0,0,353,318.65a1.4,1.4,0,0,1-1.39,2.44,19.46,19.46,0,0,1-7.44-8.7,21,21,0,0,1-7.78,8.71A1.45,1.45,0,0,1,335.65,321.28Z"/><path class="cls-2" d="M335.65,333a1.4,1.4,0,0,1-.71-2.62h0c.07,0,6.43-3.8,7.82-11.15a1.41,1.41,0,0,1,1.38-1.14h0a1.41,1.41,0,0,1,1.38,1.14A17.31,17.31,0,0,0,353,330.39a1.4,1.4,0,0,1-1.39,2.44,19.46,19.46,0,0,1-7.44-8.7,21,21,0,0,1-7.78,8.71A1.45,1.45,0,0,1,335.65,333Z"/><path class="cls-2" d="M371.08,342.16a1.41,1.41,0,0,1-1.4-1.41v-65a1.41,1.41,0,1,1,2.81,0v65A1.41,1.41,0,0,1,371.08,342.16Z"/><path class="cls-2" d="M362.64,288.93a1.41,1.41,0,0,1-.71-2.63h0c.07,0,6.43-3.79,7.82-11.14a1.41,1.41,0,0,1,1.38-1.14h0a1.41,1.41,0,0,1,1.39,1.14,17.17,17.17,0,0,0,7.42,11.14,1.4,1.4,0,1,1-1.39,2.44,19.46,19.46,0,0,1-7.44-8.7,20.84,20.84,0,0,1-7.78,8.7A1.36,1.36,0,0,1,362.64,288.93Z"/><path class="cls-2" d="M362.64,300.67a1.41,1.41,0,0,1-.71-2.63h0c.07,0,6.43-3.79,7.82-11.14a1.41,1.41,0,0,1,1.38-1.14h0a1.41,1.41,0,0,1,1.39,1.14A17.17,17.17,0,0,0,379.94,298a1.4,1.4,0,1,1-1.39,2.44,19.46,19.46,0,0,1-7.44-8.7,21,21,0,0,1-7.78,8.71A1.45,1.45,0,0,1,362.64,300.67Z"/><path class="cls-2" d="M362.64,313.08a1.41,1.41,0,0,1-.71-2.63h0c.07,0,6.43-3.79,7.82-11.14a1.43,1.43,0,0,1,1.38-1.15h0a1.41,1.41,0,0,1,1.39,1.14,17.14,17.14,0,0,0,7.42,11.14,1.41,1.41,0,0,1-1.39,2.45,19.46,19.46,0,0,1-7.44-8.7,20.91,20.91,0,0,1-7.78,8.7A1.36,1.36,0,0,1,362.64,313.08Z"/><path class="cls-2" d="M362.64,324.82a1.41,1.41,0,0,1-.71-2.63h0c.07,0,6.43-3.79,7.82-11.14a1.43,1.43,0,0,1,1.38-1.15h0a1.41,1.41,0,0,1,1.39,1.14,17.14,17.14,0,0,0,7.42,11.14,1.41,1.41,0,0,1-1.39,2.45,19.46,19.46,0,0,1-7.44-8.7,20.91,20.91,0,0,1-7.78,8.7A1.36,1.36,0,0,1,362.64,324.82Z"/><path class="cls-4" d="M466.79,139.43a11.8,11.8,0,0,0-5.42,1.32,19.86,19.86,0,0,0-20.63-12.91,22.39,22.39,0,0,0-42.46,3.7,15.71,15.71,0,0,0-9.2,3.39,14.92,14.92,0,0,0-27.5,5.14,11.84,11.84,0,0,0-15.62,10H478.59A11.86,11.86,0,0,0,466.79,139.43Z"/><path class="cls-2" d="M478.59,151.45H346a1.36,1.36,0,0,1-1-.46,1.41,1.41,0,0,1-.36-1.09A13.23,13.23,0,0,1,357.76,138a13.57,13.57,0,0,1,2.77.29,16.25,16.25,0,0,1,15.75-12,16.45,16.45,0,0,1,13.16,6.66,17.06,17.06,0,0,1,7.73-2.72,23.8,23.8,0,0,1,44.45-3.85,21.3,21.3,0,0,1,20.51,12.51,13.29,13.29,0,0,1,17.86,11,1.44,1.44,0,0,1-.35,1.09A1.4,1.4,0,0,1,478.59,151.45Zm-130.95-2.81H476.91a10.43,10.43,0,0,0-10.12-7.8A10.31,10.31,0,0,0,462,142a1.46,1.46,0,0,1-1.16.06,1.44,1.44,0,0,1-.81-.83,18.42,18.42,0,0,0-17.27-12.08c-.63,0-1.27,0-1.89.09a1.4,1.4,0,0,1-1.44-.85,21,21,0,0,0-39.79,3.46,1.42,1.42,0,0,1-1.33,1.1A14.22,14.22,0,0,0,390,136a1.43,1.43,0,0,1-1.13.28,1.4,1.4,0,0,1-.95-.66A13.51,13.51,0,0,0,363,140.3a1.43,1.43,0,0,1-.67,1,1.41,1.41,0,0,1-1.17.12,10.46,10.46,0,0,0-13.49,7.24Z"/><path class="cls-4" d="M160,212.36a12.06,12.06,0,0,0-2.9.35,11.05,11.05,0,0,0-21.2,3.8,9,9,0,0,0-3.53-.71,9.21,9.21,0,0,0-8.17,5,7.3,7.3,0,0,0-11.21,5h59.16c0-.39,0-.78,0-1.18A12.2,12.2,0,0,0,160,212.36Z"/><path class="cls-2" d="M172.15,227.14H113a1.39,1.39,0,0,1-1.07-.49,1.37,1.37,0,0,1-.32-1.13,8.71,8.71,0,0,1,12.1-6.63,10.57,10.57,0,0,1,8.67-4.49,10.24,10.24,0,0,1,2.34.26,12.46,12.46,0,0,1,23.19-3.54A13.42,13.42,0,0,1,160,211a13.62,13.62,0,0,1,13.61,13.61c0,.44,0,.88-.06,1.31A1.41,1.41,0,0,1,172.15,227.14Zm-57.27-2.81H170.8A10.81,10.81,0,0,0,160,213.77a11.06,11.06,0,0,0-2.56.3,1.4,1.4,0,0,1-1.63-.81,9.65,9.65,0,0,0-18.51,3.31,1.4,1.4,0,0,1-1.94,1.23,7.82,7.82,0,0,0-9.91,3.61,1.41,1.41,0,0,1-.89.71,1.39,1.39,0,0,1-1.12-.18,5.91,5.91,0,0,0-8.56,2.39Z"/><path class="cls-2" d="M490,343.19H102.82a1.41,1.41,0,1,1,0-2.81H490a1.41,1.41,0,1,1,0,2.81Z"/><path class="cls-2" d="M217.38,95.89a1.4,1.4,0,0,1-.23-2.79l168.6-28a1.4,1.4,0,0,1,.46,2.77l-168.6,28Z"/><path class="cls-2" d="M363.84,213.48a1.86,1.86,0,0,1-.33,0l-151.3-36.62a1.41,1.41,0,0,1,.67-2.74L364.17,210.7a1.41,1.41,0,0,1-.33,2.78Z"/><path class="cls-2" d="M163.33,342.31a1.41,1.41,0,0,1-1.41-1.41v-57a1.41,1.41,0,0,1,2.81,0v57A1.41,1.41,0,0,1,163.33,342.31Z"/><path class="cls-2" d="M154.88,297.11a1.41,1.41,0,0,1-.71-2.63h0c.07,0,6.43-3.79,7.82-11.14a1.43,1.43,0,0,1,1.38-1.15h0a1.41,1.41,0,0,1,1.38,1.14,17.28,17.28,0,0,0,7.42,11.14,1.41,1.41,0,0,1-1.39,2.45,19.46,19.46,0,0,1-7.44-8.7,20.91,20.91,0,0,1-7.78,8.7A1.36,1.36,0,0,1,154.88,297.11Z"/><path class="cls-2" d="M154.88,308.85a1.41,1.41,0,0,1-.71-2.63h0c.07,0,6.43-3.79,7.82-11.14a1.43,1.43,0,0,1,1.38-1.15h0a1.41,1.41,0,0,1,1.38,1.14,17.28,17.28,0,0,0,7.42,11.14,1.41,1.41,0,0,1-1.39,2.45,19.46,19.46,0,0,1-7.44-8.7,20.91,20.91,0,0,1-7.78,8.7A1.36,1.36,0,0,1,154.88,308.85Z"/><path class="cls-2" d="M154.88,321.25a1.4,1.4,0,0,1-.71-2.62h0c.07,0,6.43-3.8,7.82-11.14a1.41,1.41,0,0,1,1.38-1.15h0a1.41,1.41,0,0,1,1.38,1.14,17.31,17.31,0,0,0,7.42,11.14,1.41,1.41,0,0,1-1.39,2.45,19.59,19.59,0,0,1-7.44-8.71,21,21,0,0,1-7.78,8.71A1.45,1.45,0,0,1,154.88,321.25Z"/><path class="cls-2" d="M154.88,333a1.4,1.4,0,0,1-.71-2.62h0c.07,0,6.43-3.8,7.82-11.14a1.41,1.41,0,0,1,1.38-1.15h0a1.41,1.41,0,0,1,1.38,1.14,17.31,17.31,0,0,0,7.42,11.14,1.41,1.41,0,0,1-1.39,2.45,19.59,19.59,0,0,1-7.44-8.71,21,21,0,0,1-7.78,8.71A1.45,1.45,0,0,1,154.88,333Z"/><path class="cls-2" d="M135.11,342.13a1.41,1.41,0,0,1-1.41-1.41v-65a1.41,1.41,0,1,1,2.82,0v65A1.41,1.41,0,0,1,135.11,342.13Z"/><path class="cls-2" d="M126.66,288.9a1.4,1.4,0,0,1-.7-2.62c.11-.07,6.43-3.82,7.82-11.15a1.4,1.4,0,0,1,1.38-1.14h0a1.41,1.41,0,0,1,1.38,1.14A17.17,17.17,0,0,0,144,286.27a1.41,1.41,0,0,1-1.39,2.45,19.67,19.67,0,0,1-7.43-8.71,21,21,0,0,1-7.78,8.71A1.46,1.46,0,0,1,126.66,288.9Z"/><path class="cls-2" d="M126.66,300.64A1.4,1.4,0,0,1,126,298h0c.06,0,6.43-3.8,7.82-11.15a1.4,1.4,0,0,1,1.38-1.14h0a1.41,1.41,0,0,1,1.38,1.14A17.17,17.17,0,0,0,144,298a1.4,1.4,0,1,1-1.39,2.44,19.54,19.54,0,0,1-7.43-8.7,21,21,0,0,1-7.78,8.71A1.46,1.46,0,0,1,126.66,300.64Z"/><path class="cls-2" d="M126.66,313.05a1.39,1.39,0,0,1-1.22-.71,1.41,1.41,0,0,1,.52-1.92h0c.06,0,6.43-3.79,7.82-11.14a1.4,1.4,0,0,1,1.38-1.14h0a1.4,1.4,0,0,1,1.38,1.14A17.13,17.13,0,0,0,144,310.41a1.41,1.41,0,0,1-1.39,2.45,19.54,19.54,0,0,1-7.43-8.7,20.91,20.91,0,0,1-7.78,8.7A1.37,1.37,0,0,1,126.66,313.05Z"/><path class="cls-2" d="M126.66,324.79a1.39,1.39,0,0,1-1.22-.71,1.41,1.41,0,0,1,.52-1.92h0c.06,0,6.43-3.79,7.82-11.14a1.4,1.4,0,0,1,1.38-1.14h0a1.4,1.4,0,0,1,1.38,1.13A17.14,17.14,0,0,0,144,322.15a1.41,1.41,0,0,1-1.39,2.45,19.54,19.54,0,0,1-7.43-8.7,20.91,20.91,0,0,1-7.78,8.7A1.37,1.37,0,0,1,126.66,324.79Z"/><path class="cls-2" d="M192.66,342.13a1.41,1.41,0,0,1-1.41-1.41v-65a1.41,1.41,0,1,1,2.82,0v65A1.41,1.41,0,0,1,192.66,342.13Z"/><path class="cls-2" d="M184.21,288.9a1.4,1.4,0,0,1-.7-2.62c.11-.07,6.43-3.82,7.82-11.15a1.4,1.4,0,0,1,1.38-1.14h0a1.41,1.41,0,0,1,1.38,1.14,17.17,17.17,0,0,0,7.42,11.14,1.41,1.41,0,0,1-1.39,2.45,19.73,19.73,0,0,1-7.44-8.71,21,21,0,0,1-7.77,8.71A1.46,1.46,0,0,1,184.21,288.9Z"/><path class="cls-2" d="M184.21,300.64a1.4,1.4,0,0,1-.7-2.62h0c.06,0,6.43-3.8,7.82-11.15a1.4,1.4,0,0,1,1.38-1.14h0a1.41,1.41,0,0,1,1.38,1.14A17.17,17.17,0,0,0,201.51,298a1.4,1.4,0,1,1-1.39,2.44,19.59,19.59,0,0,1-7.44-8.7,21,21,0,0,1-7.77,8.71A1.46,1.46,0,0,1,184.21,300.64Z"/><path class="cls-2" d="M184.21,313.05a1.41,1.41,0,0,1-.7-2.63h0c.06,0,6.43-3.79,7.82-11.14a1.4,1.4,0,0,1,1.38-1.14h0a1.4,1.4,0,0,1,1.38,1.14,17.13,17.13,0,0,0,7.42,11.13,1.41,1.41,0,0,1-1.39,2.45,19.59,19.59,0,0,1-7.44-8.7,20.92,20.92,0,0,1-7.77,8.7A1.37,1.37,0,0,1,184.21,313.05Z"/><path class="cls-2" d="M184.21,324.79a1.41,1.41,0,0,1-.7-2.63h0c.06,0,6.43-3.79,7.82-11.14a1.4,1.4,0,0,1,1.38-1.14h0a1.4,1.4,0,0,1,1.38,1.13,17.14,17.14,0,0,0,7.42,11.14,1.41,1.41,0,0,1-1.39,2.45,19.59,19.59,0,0,1-7.44-8.7,20.92,20.92,0,0,1-7.77,8.7A1.37,1.37,0,0,1,184.21,324.79Z"/><path class="cls-2" d="M458.6,341.43a1.41,1.41,0,0,1-1.41-1.41V283.07a1.41,1.41,0,1,1,2.82,0V340A1.41,1.41,0,0,1,458.6,341.43Z"/><path class="cls-2" d="M450.15,296.23a1.4,1.4,0,0,1-.7-2.62h0c.06,0,6.43-3.8,7.82-11.15a1.4,1.4,0,0,1,1.38-1.14h0a1.41,1.41,0,0,1,1.38,1.14,17.17,17.17,0,0,0,7.42,11.14,1.41,1.41,0,0,1-1.39,2.45,19.73,19.73,0,0,1-7.44-8.71,21,21,0,0,1-7.77,8.71A1.46,1.46,0,0,1,450.15,296.23Z"/><path class="cls-2" d="M450.15,308a1.4,1.4,0,0,1-.7-2.62h0c.06,0,6.43-3.8,7.82-11.15a1.4,1.4,0,0,1,1.38-1.14h0A1.41,1.41,0,0,1,460,294.2a17.17,17.17,0,0,0,7.42,11.14,1.4,1.4,0,1,1-1.39,2.44,19.59,19.59,0,0,1-7.44-8.7,21,21,0,0,1-7.77,8.71A1.46,1.46,0,0,1,450.15,308Z"/><path class="cls-2" d="M450.15,320.38a1.41,1.41,0,0,1-.7-2.63h0c.06,0,6.43-3.79,7.82-11.14a1.4,1.4,0,0,1,1.38-1.14h0a1.4,1.4,0,0,1,1.38,1.14,17.13,17.13,0,0,0,7.42,11.13,1.41,1.41,0,0,1-1.39,2.45,19.59,19.59,0,0,1-7.44-8.7,20.92,20.92,0,0,1-7.77,8.7A1.37,1.37,0,0,1,450.15,320.38Z"/><path class="cls-2" d="M450.15,332.12a1.39,1.39,0,0,1-1.22-.71,1.41,1.41,0,0,1,.52-1.92h0c.06,0,6.43-3.79,7.82-11.14a1.4,1.4,0,0,1,1.38-1.14h0a1.4,1.4,0,0,1,1.38,1.14,17.13,17.13,0,0,0,7.42,11.13,1.41,1.41,0,0,1-1.39,2.45,19.59,19.59,0,0,1-7.44-8.7,20.92,20.92,0,0,1-7.77,8.7A1.37,1.37,0,0,1,450.15,332.12Z"/><path class="cls-2" d="M432.26,341.25a1.41,1.41,0,0,1-1.41-1.4v-65a1.41,1.41,0,0,1,2.82,0v65A1.41,1.41,0,0,1,432.26,341.25Z"/><path class="cls-2" d="M423.81,288a1.41,1.41,0,0,1-.7-2.63c.11-.06,6.43-3.82,7.82-11.14a1.4,1.4,0,0,1,1.38-1.14h0a1.4,1.4,0,0,1,1.38,1.13,17.39,17.39,0,0,0,7.42,11.15,1.4,1.4,0,1,1-1.39,2.44,19.59,19.59,0,0,1-7.44-8.7,20.92,20.92,0,0,1-7.77,8.7A1.37,1.37,0,0,1,423.81,288Z"/><path class="cls-2" d="M423.81,299.77a1.41,1.41,0,0,1-.7-2.63h0c.06,0,6.43-3.79,7.82-11.14a1.41,1.41,0,0,1,1.38-1.15h0a1.41,1.41,0,0,1,1.38,1.14,17.31,17.31,0,0,0,7.42,11.14,1.41,1.41,0,1,1-1.39,2.45,19.59,19.59,0,0,1-7.44-8.7,20.92,20.92,0,0,1-7.77,8.7A1.37,1.37,0,0,1,423.81,299.77Z"/><path class="cls-2" d="M423.81,312.17a1.4,1.4,0,0,1-.7-2.62h0c.06,0,6.43-3.79,7.82-11.14a1.4,1.4,0,0,1,1.38-1.15h0a1.41,1.41,0,0,1,1.38,1.14,17.35,17.35,0,0,0,7.42,11.14,1.41,1.41,0,0,1-1.39,2.45,19.73,19.73,0,0,1-7.44-8.71,21,21,0,0,1-7.77,8.71A1.46,1.46,0,0,1,423.81,312.17Z"/><path class="cls-2" d="M423.81,323.91a1.4,1.4,0,0,1-.7-2.62h0c.06,0,6.43-3.79,7.82-11.14a1.4,1.4,0,0,1,1.38-1.15h0a1.41,1.41,0,0,1,1.38,1.14,17.35,17.35,0,0,0,7.42,11.14,1.41,1.41,0,1,1-1.39,2.45,19.73,19.73,0,0,1-7.44-8.71,20.91,20.91,0,0,1-7.77,8.71A1.46,1.46,0,0,1,423.81,323.91Z"/><path class="cls-2" d="M400.62,342.34a1.41,1.41,0,0,1-1.41-1.41v-65a1.41,1.41,0,0,1,2.82,0v65A1.41,1.41,0,0,1,400.62,342.34Z"/><path class="cls-2" d="M392.17,289.11a1.39,1.39,0,0,1-1.22-.71,1.41,1.41,0,0,1,.52-1.92h0c.06,0,6.43-3.79,7.82-11.14a1.4,1.4,0,0,1,1.38-1.14h0a1.4,1.4,0,0,1,1.38,1.14,17.34,17.34,0,0,0,7.43,11.14,1.41,1.41,0,0,1-1.4,2.44,19.54,19.54,0,0,1-7.43-8.7,20.91,20.91,0,0,1-7.78,8.7A1.37,1.37,0,0,1,392.17,289.11Z"/><path class="cls-2" d="M392.17,300.85a1.41,1.41,0,0,1-.7-2.63h0c.06,0,6.43-3.79,7.82-11.14a1.4,1.4,0,0,1,1.38-1.14h0a1.4,1.4,0,0,1,1.38,1.13,17.34,17.34,0,0,0,7.43,11.15,1.41,1.41,0,0,1-1.4,2.44,19.54,19.54,0,0,1-7.43-8.7,20.91,20.91,0,0,1-7.78,8.7A1.37,1.37,0,0,1,392.17,300.85Z"/><path class="cls-2" d="M392.17,313.26a1.41,1.41,0,0,1-.7-2.63h0c.06,0,6.43-3.79,7.82-11.14a1.4,1.4,0,0,1,1.38-1.15h0a1.41,1.41,0,0,1,1.38,1.14,17.27,17.27,0,0,0,7.43,11.14,1.41,1.41,0,0,1-1.4,2.45,19.67,19.67,0,0,1-7.43-8.71,21,21,0,0,1-7.78,8.71A1.37,1.37,0,0,1,392.17,313.26Z"/><path class="cls-2" d="M392.17,325a1.4,1.4,0,0,1-.7-2.62c.11-.06,6.43-3.82,7.82-11.14a1.4,1.4,0,0,1,1.38-1.15h0a1.41,1.41,0,0,1,1.38,1.14,17.27,17.27,0,0,0,7.43,11.14,1.41,1.41,0,0,1-1.4,2.45,19.68,19.68,0,0,1-7.43-8.7,21,21,0,0,1-7.78,8.7A1.35,1.35,0,0,1,392.17,325Z"/><path class="cls-2" d="M299.84,330.51a1.41,1.41,0,0,0,0-2.81,1.41,1.41,0,0,0,0,2.81Z"/><path class="cls-2" d="M288.32,317.14a1.41,1.41,0,0,0,0-2.82,1.41,1.41,0,0,0,0,2.82Z"/><path class="cls-2" d="M297.74,297.89a1.41,1.41,0,0,0,0-2.81,1.41,1.41,0,0,0,0,2.81Z"/><path class="cls-2" d="M288,290.2a1.41,1.41,0,0,0,0-2.82,1.41,1.41,0,0,0,0,2.82Z"/><path class="cls-2" d="M294.35,279.7a1.41,1.41,0,0,0,0-2.81,1.41,1.41,0,0,0,0,2.81Z"/><path class="cls-2" d="M288.32,267.65a1.41,1.41,0,0,0,0-2.81,1.41,1.41,0,0,0,0,2.81Z"/><path class="cls-2" d="M297.1,256.39a1.41,1.41,0,0,0,0-2.82,1.41,1.41,0,0,0,0,2.82Z"/><path class="cls-2" d="M288.25,247.53a1.41,1.41,0,0,0,0-2.81,1.41,1.41,0,0,0,0,2.81Z"/><path class="cls-2" d="M298.53,160.68a1.41,1.41,0,0,0,0-2.81,1.41,1.41,0,0,0,0,2.81Z"/><path class="cls-2" d="M285.88,156.85a1.41,1.41,0,0,0,0-2.81,1.41,1.41,0,0,0,0,2.81Z"/><path class="cls-2" d="M287.76,135.1a1.41,1.41,0,0,0,0-2.82,1.41,1.41,0,0,0,0,2.82Z"/><path class="cls-2" d="M295.3,146.14a1.41,1.41,0,0,0,0-2.82,1.41,1.41,0,0,0,0,2.82Z"/><path class="cls-2" d="M298.53,131.86a1.41,1.41,0,0,0,0-2.81,1.41,1.41,0,0,0,0,2.81Z"/><path class="cls-2" d="M292.34,122.17a1.41,1.41,0,0,0,0-2.81,1.41,1.41,0,0,0,0,2.81Z"/><path class="cls-2" d="M297.25,42.63a1.41,1.41,0,0,0,0-2.82,1.41,1.41,0,0,0,0,2.82Z"/><path class="cls-2" d="M286.92,36.94a1.41,1.41,0,0,0,0-2.81,1.41,1.41,0,0,0,0,2.81Z"/><path class="cls-2" d="M288,21.44a1.41,1.41,0,0,0,0-2.82,1.41,1.41,0,0,0,0,2.82Z"/><path class="cls-2" d="M297.25,27.12a1.41,1.41,0,0,0,0-2.81,1.41,1.41,0,0,0,0,2.81Z"/><path class="cls-2" d="M296.48,236.3a1.41,1.41,0,0,0,0-2.82,1.41,1.41,0,0,0,0,2.82Z"/><path class="cls-2" d="M292.44,307.94a1.41,1.41,0,0,0,0-2.82,1.41,1.41,0,0,0,0,2.82Z"/><path class="cls-2" d="M299.42,318.41a1.41,1.41,0,0,0,0-2.82,1.41,1.41,0,0,0,0,2.82Z"/><path class="cls-2" d="M291.17,333.32a1.41,1.41,0,0,0,0-2.82,1.41,1.41,0,0,0,0,2.82Z"/><path class="cls-2" d="M300.06,268a1.41,1.41,0,0,0,0-2.82,1.41,1.41,0,0,0,0,2.82Z"/><path class="cls-2" d="M286.1,233.39a1.41,1.41,0,0,0,0-2.81,1.41,1.41,0,0,0,0,2.81Z"/></svg>